<svg width="224" height="236" viewBox="0 0 224 236" fill="none" xmlns="http://www.w3.org/2000/svg">
<path d="M156.5 5L152.5 2.87576H72L68.5 4.5L66.75 8L66.75 76.8758L112 94L158.5 76.8758V8.5L156.5 5Z" fill="#AD8B73" stroke="black" stroke-width="5" stroke-linejoin="bevel"/>
<rect x="77.2222" y="11.8495" width="31.3333" height="53.5556" rx="4" fill="#444444" fill-opacity="0.9" stroke="black" stroke-width="2"/>
<path d="M103.25 27.5162C103.25 33.2385 98.6112 37.8773 92.8889 37.8773C87.1666 37.8773 82.5278 33.2385 82.5278 27.5162C82.5278 21.7939 87.1666 17.1551 92.8889 17.1551C98.6112 17.1551 103.25 21.7939 103.25 27.5162Z" fill="#444444" stroke="black" stroke-width="1.5"/>
<path d="M99.0556 27.5162C99.0556 30.9219 96.2946 33.6828 92.8889 33.6828C89.4831 33.6828 86.7222 30.9219 86.7222 27.5162C86.7222 24.1104 89.4831 21.3495 92.8889 21.3495C96.2946 21.3495 99.0556 24.1104 99.0556 27.5162Z" fill="#333333" stroke="black"/>
<mask id="path-5-inside-1_4_6" fill="white">
<path d="M150.381 221.814L113.719 234.822C113.159 235.022 112.57 235.124 111.985 235.124C111.4 235.124 110.811 235.022 110.251 234.822L72.1131 221.292C85.0751 207.567 99.0231 193.754 111.985 180.034C125.106 193.925 137.255 207.904 150.381 221.814ZM221.3 54.0393C219.937 53.1019 218.193 52.8626 216.637 53.4241L111.985 90.5512L7.32785 53.4241C5.76705 52.8675 4.02293 53.1019 2.66529 54.0393C1.30765 54.9963 0.5 56.5294 0.5 58.1651V192.343C0.5 194.467 1.84773 196.357 3.87428 197.074L59.7804 216.912C75.1356 202.821 90.4908 188.735 105.846 174.658C101.005 169.537 96.1691 164.4 91.3282 159.288C81.1062 166.509 65.9641 163.765 56.857 152.687C47.0661 140.993 38.6131 120.101 46.7936 111.541C55.4795 103.475 76.6914 111.815 88.5485 121.458C99.7911 130.437 102.581 145.348 95.2475 155.421C100.51 160.25 106.718 164.913 111.985 169.751C116.92 165.22 120.884 160.875 125.814 156.359C121.652 149.352 124.412 139.543 131.185 133.943C138.925 127.537 167.639 103.246 168.426 104.017C169.189 104.774 149.053 123.523 135.6 136.818L137.845 139.025C152.204 126.624 172.489 108.021 173.262 108.778C174.025 109.54 154.518 128.904 141.511 142.643L143.736 144.841C157.664 132.004 177.306 112.777 178.083 113.529C178.846 114.295 159.978 134.275 147.388 148.429L149.613 150.622C163.115 137.365 182.127 117.503 182.895 118.27C183.668 119.036 152.586 154.933 152.546 154.987C152.546 154.987 159.146 147.355 152.526 154.967C146.209 162.257 136.76 164.464 129.783 160.26C125.254 165.054 120.735 169.844 116.202 174.634C131.745 188.896 147.289 203.148 162.842 217.41L220.116 197.089C222.147 196.376 223.5 194.482 223.5 192.358V58.1651C223.465 56.5294 222.663 54.9963 221.3 54.0393Z"/>
</mask>
<path d="M150.381 221.814L113.719 234.822C113.159 235.022 112.57 235.124 111.985 235.124C111.4 235.124 110.811 235.022 110.251 234.822L72.1131 221.292C85.0751 207.567 99.0231 193.754 111.985 180.034C125.106 193.925 137.255 207.904 150.381 221.814ZM221.3 54.0393C219.937 53.1019 218.193 52.8626 216.637 53.4241L111.985 90.5512L7.32785 53.4241C5.76705 52.8675 4.02293 53.1019 2.66529 54.0393C1.30765 54.9963 0.5 56.5294 0.5 58.1651V192.343C0.5 194.467 1.84773 196.357 3.87428 197.074L59.7804 216.912C75.1356 202.821 90.4908 188.735 105.846 174.658C101.005 169.537 96.1691 164.4 91.3282 159.288C81.1062 166.509 65.9641 163.765 56.857 152.687C47.0661 140.993 38.6131 120.101 46.7936 111.541C55.4795 103.475 76.6914 111.815 88.5485 121.458C99.7911 130.437 102.581 145.348 95.2475 155.421C100.51 160.25 106.718 164.913 111.985 169.751C116.92 165.22 120.884 160.875 125.814 156.359C121.652 149.352 124.412 139.543 131.185 133.943C138.925 127.537 167.639 103.246 168.426 104.017C169.189 104.774 149.053 123.523 135.6 136.818L137.845 139.025C152.204 126.624 172.489 108.021 173.262 108.778C174.025 109.54 154.518 128.904 141.511 142.643L143.736 144.841C157.664 132.004 177.306 112.777 178.083 113.529C178.846 114.295 159.978 134.275 147.388 148.429L149.613 150.622C163.115 137.365 182.127 117.503 182.895 118.27C183.668 119.036 152.586 154.933 152.546 154.987C152.546 154.987 159.146 147.355 152.526 154.967C146.209 162.257 136.76 164.464 129.783 160.26C125.254 165.054 120.735 169.844 116.202 174.634C131.745 188.896 147.289 203.148 162.842 217.41L220.116 197.089C222.147 196.376 223.5 194.482 223.5 192.358V58.1651C223.465 56.5294 222.663 54.9963 221.3 54.0393Z" fill="#3C2A21"/>
<path d="M150.381 221.814L152.052 226.527L159.281 223.962L154.017 218.383L150.381 221.814ZM113.719 234.822L112.047 230.109L112.036 230.113L113.719 234.822ZM110.251 234.822L111.934 230.113L111.923 230.109L110.251 234.822ZM72.1131 221.292L68.478 217.859L63.2086 223.438L70.4414 226.004L72.1131 221.292ZM111.985 180.034L115.62 176.601L111.986 172.753L108.351 176.6L111.985 180.034ZM221.3 54.0393L224.174 49.9476L224.154 49.9337L224.134 49.9201L221.3 54.0393ZM216.637 53.4241L218.309 58.1364L218.322 58.1318L218.335 58.1272L216.637 53.4241ZM111.985 90.5512L110.313 95.2635L111.985 95.8565L113.657 95.2635L111.985 90.5512ZM7.32785 53.4241L5.64833 58.1336L5.65617 58.1364L7.32785 53.4241ZM2.66529 54.0393L-0.175737 49.9249L-0.195642 49.9386L-0.215413 49.9526L2.66529 54.0393ZM3.87428 197.074L5.54635 192.362L5.54352 192.361L3.87428 197.074ZM59.7804 216.912L58.1083 221.624L60.944 222.631L63.161 220.596L59.7804 216.912ZM105.846 174.658L109.225 178.344L112.967 174.914L109.48 171.224L105.846 174.658ZM91.3282 159.288L94.9587 155.85L91.9806 152.705L88.4432 155.204L91.3282 159.288ZM56.857 152.687L60.7194 149.512L60.7051 149.494L60.6906 149.477L56.857 152.687ZM46.7936 111.541L43.3912 107.878L43.282 107.979L43.179 108.087L46.7936 111.541ZM88.5485 121.458L85.3937 125.337L85.4109 125.351L85.4282 125.365L88.5485 121.458ZM95.2475 155.421L91.2053 152.478L88.578 156.087L91.8669 159.105L95.2475 155.421ZM111.985 169.751L108.603 173.434L111.984 176.54L115.367 173.435L111.985 169.751ZM125.814 156.359L129.192 160.045L132.189 157.3L130.113 153.805L125.814 156.359ZM131.185 133.943L134.371 137.796L134.373 137.794L131.185 133.943ZM168.426 104.017L171.947 100.467L171.936 100.456L171.925 100.445L168.426 104.017ZM135.6 136.818L132.085 133.262L128.478 136.828L132.095 140.384L135.6 136.818ZM137.845 139.025L134.339 142.591L137.625 145.822L141.113 142.809L137.845 139.025ZM173.262 108.778L176.795 105.239L176.778 105.222L176.76 105.205L173.262 108.778ZM141.511 142.643L137.88 139.206L134.515 142.761L137.998 146.201L141.511 142.643ZM143.736 144.841L140.223 148.398L143.617 151.75L147.125 148.517L143.736 144.841ZM178.083 113.529L181.627 110.001L181.593 109.967L181.558 109.933L178.083 113.529ZM147.388 148.429L143.652 145.106L140.494 148.656L143.878 151.991L147.388 148.429ZM149.613 150.622L146.103 154.183L149.606 157.635L153.115 154.189L149.613 150.622ZM182.895 118.27L179.362 121.808L179.368 121.814L179.374 121.82L182.895 118.27ZM152.546 154.987L148.523 152.017L156.328 158.257L152.546 154.987ZM152.526 154.967L148.753 151.686L148.748 151.692L152.526 154.967ZM129.783 160.26L132.364 155.977L128.914 153.898L126.148 156.826L129.783 160.26ZM116.202 174.634L112.57 171.197L109.08 174.885L112.821 178.318L116.202 174.634ZM162.842 217.41L159.463 221.095L161.68 223.128L164.514 222.122L162.842 217.41ZM220.116 197.089L218.46 192.371L218.452 192.374L218.444 192.377L220.116 197.089ZM223.5 58.1651H228.5V58.1121L228.499 58.0591L223.5 58.1651ZM148.709 217.102L112.047 230.109L115.391 239.534L152.052 226.527L148.709 217.102ZM112.036 230.113C112.025 230.117 112.013 230.12 112.003 230.122C111.992 230.124 111.986 230.124 111.985 230.124V240.124C113.15 240.124 114.309 239.921 115.403 239.53L112.036 230.113ZM111.985 230.124C111.985 230.124 111.978 230.124 111.968 230.122C111.957 230.12 111.946 230.117 111.934 230.113L108.568 239.53C109.662 239.921 110.82 240.124 111.985 240.124V230.124ZM111.923 230.109L73.7848 216.58L70.4414 226.004L108.579 239.534L111.923 230.109ZM75.7482 224.725C82.1949 217.899 88.8922 211.045 95.625 204.156C102.347 197.278 109.105 190.364 115.62 183.468L108.351 176.6C101.904 183.424 95.2062 190.277 88.4732 197.166C81.751 204.045 74.9933 210.96 68.478 217.859L75.7482 224.725ZM108.35 183.467C114.87 190.37 121.153 197.3 127.477 204.275C133.789 211.239 140.141 218.248 146.744 225.246L154.017 218.383C147.495 211.47 141.209 204.535 134.886 197.559C128.572 190.594 122.221 183.589 115.62 176.601L108.35 183.467ZM224.134 49.9201C221.471 48.0879 218.043 47.601 214.94 48.721L218.335 58.1272C218.336 58.1268 218.351 58.1218 218.38 58.1257C218.411 58.1298 218.441 58.1416 218.466 58.1586L224.134 49.9201ZM214.966 48.7119L110.313 85.839L113.657 95.2635L218.309 58.1364L214.966 48.7119ZM113.657 85.8389L8.99952 48.7118L5.65617 58.1364L110.313 95.2635L113.657 85.8389ZM9.00735 48.7146C5.92497 47.6154 2.49945 48.0777 -0.175737 49.9249L5.50632 58.1537C5.52132 58.1434 5.54558 58.1323 5.57766 58.128C5.60928 58.1239 5.63336 58.1283 5.64834 58.1336L9.00735 48.7146ZM-0.215413 49.9526C-2.86903 51.8231 -4.5 54.8638 -4.5 58.1651H5.5C5.5 58.1684 5.49951 58.1721 5.49884 58.1748C5.49825 58.1771 5.4981 58.1765 5.49987 58.1731C5.50316 58.1668 5.51479 58.1481 5.54599 58.1261L-0.215413 49.9526ZM-4.5 58.1651V192.343H5.5V58.1651H-4.5ZM-4.5 192.343C-4.5 196.62 -1.78448 200.375 2.20505 201.787L5.54352 192.361C5.52475 192.355 5.51457 192.348 5.50922 192.344C5.50311 192.339 5.49961 192.335 5.49792 192.333C5.49624 192.33 5.49699 192.331 5.4982 192.334C5.49975 192.339 5.5 192.343 5.5 192.343H-4.5ZM2.20221 201.786L58.1083 221.624L61.4524 212.2L5.54635 192.362L2.20221 201.786ZM63.161 220.596C78.5158 206.505 93.8704 192.42 109.225 178.344L102.467 170.973C87.1112 185.05 71.7553 199.137 56.3997 213.228L63.161 220.596ZM109.48 171.224C104.65 166.114 99.7992 160.962 94.9587 155.85L87.6977 162.726C92.539 167.839 97.3599 172.959 102.212 178.093L109.48 171.224ZM88.4432 155.204C80.7389 160.647 68.4736 158.944 60.7194 149.512L52.9945 155.862C63.4545 168.586 81.4735 172.372 94.2131 163.372L88.4432 155.204ZM60.6906 149.477C56.2035 144.118 51.9847 136.57 49.8771 129.509C48.8257 125.986 48.3708 122.819 48.5286 120.243C48.6853 117.686 49.4143 116.036 50.4082 114.996L43.179 108.087C40.0826 111.326 38.8006 115.498 38.5473 119.631C38.2953 123.745 39.0318 128.137 40.2949 132.369C42.8165 140.817 47.7195 149.562 53.0233 155.897L60.6906 149.477ZM50.196 115.205C51.2629 114.214 52.9718 113.48 55.6114 113.323C58.2601 113.166 61.5011 113.621 65.0895 114.661C72.2826 116.746 79.9564 120.915 85.3937 125.337L91.7033 117.579C85.2835 112.358 76.4228 107.535 67.8742 105.057C63.5918 103.815 59.1602 103.095 55.0181 103.341C50.867 103.587 46.6672 104.835 43.3912 107.878L50.196 115.205ZM85.4282 125.365C95.0112 133.018 96.6593 144.987 91.2053 152.478L99.2897 158.364C108.502 145.71 104.571 127.856 91.6688 117.551L85.4282 125.365ZM91.8669 159.105C94.6088 161.621 97.5781 164.077 100.426 166.434C103.314 168.824 106.081 171.117 108.603 173.434L115.368 166.069C112.623 163.547 109.652 161.089 106.803 158.731C103.914 156.34 101.148 154.05 98.6281 151.737L91.8669 159.105ZM115.367 173.435C117.922 171.089 120.217 168.798 122.432 166.59C124.664 164.365 126.816 162.222 129.192 160.045L122.437 152.672C119.883 155.012 117.588 157.299 115.371 159.509C113.138 161.735 110.984 163.883 108.604 166.068L115.367 173.435ZM130.113 153.805C127.531 149.459 128.966 142.265 134.371 137.796L127.999 130.089C119.858 136.821 115.773 149.246 121.516 158.912L130.113 153.805ZM134.373 137.794C138.322 134.526 147.325 126.943 155.588 120.151C159.703 116.768 163.563 113.641 166.429 111.417C167.874 110.296 168.999 109.456 169.753 108.937C169.936 108.811 170.079 108.716 170.188 108.647C170.303 108.574 170.344 108.553 170.328 108.562C170.318 108.567 170.268 108.593 170.188 108.63C170.117 108.662 169.953 108.732 169.722 108.802C169.536 108.859 169.04 108.999 168.373 108.999C167.752 109 166.237 108.871 164.928 107.59L171.925 100.445C170.591 99.1394 169.038 98.9989 168.365 98.9994C167.647 98.9999 167.086 99.1521 166.822 99.2319C166.268 99.4 165.819 99.632 165.599 99.7502C165.094 100.021 164.558 100.373 164.082 100.701C163.085 101.387 161.777 102.369 160.298 103.517C157.316 105.831 153.366 109.032 149.238 112.426C141.012 119.188 131.788 126.953 127.997 130.091L134.373 137.794ZM164.905 107.567C162.848 105.527 163.554 103.039 163.62 102.802C163.783 102.216 164.016 101.838 164.039 101.799C164.13 101.648 164.142 101.66 163.929 101.918C163.551 102.376 162.883 103.11 161.905 104.128C159.979 106.133 157.166 108.912 153.857 112.133C147.3 118.515 138.821 126.606 132.085 133.262L139.115 140.375C145.832 133.736 154.147 125.805 160.832 119.299C164.142 116.076 167.062 113.195 169.116 111.056C170.129 110.002 171.014 109.044 171.644 108.28C171.935 107.927 172.315 107.445 172.623 106.929C172.755 106.708 173.06 106.181 173.255 105.479C173.353 105.126 174.052 102.555 171.947 100.467L164.905 107.567ZM132.095 140.384L134.339 142.591L141.35 135.46L139.106 133.253L132.095 140.384ZM141.113 142.809C148.302 136.601 157.05 128.773 163.945 122.726C167.426 119.674 170.427 117.081 172.591 115.308C173.688 114.409 174.481 113.794 174.978 113.446C175.255 113.252 175.279 113.254 175.139 113.325C175.101 113.344 174.743 113.53 174.197 113.648C174.025 113.686 171.699 114.245 169.764 112.351L176.76 105.205C174.777 103.264 172.365 103.813 172.07 103.877C171.401 104.023 170.883 104.272 170.651 104.388C170.122 104.654 169.617 104.991 169.237 105.258C168.42 105.83 167.39 106.641 166.252 107.573C163.947 109.463 160.834 112.154 157.352 115.208C150.321 121.373 141.747 129.048 134.577 135.241L141.113 142.809ZM169.73 112.317C167.733 110.324 168.372 107.899 168.426 107.684C168.57 107.112 168.784 106.74 168.806 106.7C168.889 106.552 168.898 106.567 168.693 106.833C168.328 107.305 167.682 108.063 166.737 109.113C164.874 111.181 162.152 114.049 158.949 117.376C152.601 123.968 144.396 132.323 137.88 139.206L145.142 146.081C151.633 139.224 159.685 131.027 166.152 124.312C169.356 120.985 172.181 118.01 174.168 115.805C175.147 114.717 176.002 113.729 176.608 112.944C176.889 112.58 177.252 112.088 177.543 111.565C177.669 111.339 177.951 110.813 178.124 110.122C178.208 109.788 178.839 107.28 176.795 105.239L169.73 112.317ZM137.998 146.201L140.223 148.398L147.25 141.283L145.025 139.086L137.998 146.201ZM147.125 148.517C154.099 142.09 162.575 133.996 169.258 127.739C172.632 124.581 175.541 121.898 177.64 120.062C178.705 119.13 179.474 118.493 179.955 118.132C180.224 117.931 180.243 117.936 180.099 118.014C180.061 118.035 179.697 118.238 179.14 118.374C178.945 118.421 176.588 119.037 174.608 117.124L181.558 109.933C179.531 107.973 177.087 108.581 176.772 108.658C176.094 108.823 175.574 109.093 175.346 109.216C174.822 109.5 174.326 109.854 173.956 110.131C173.16 110.728 172.158 111.57 171.055 112.536C168.817 114.494 165.799 117.279 162.424 120.439C155.611 126.817 147.302 134.755 140.348 141.164L147.125 148.517ZM174.54 117.056C172.602 115.109 173.178 112.747 173.221 112.555C173.347 111.997 173.542 111.632 173.563 111.593C173.638 111.448 173.643 111.468 173.447 111.74C173.094 112.228 172.471 113.009 171.559 114.09C169.76 116.222 167.129 119.178 164.032 122.607C157.897 129.4 149.955 138.02 143.652 145.106L151.124 151.752C157.411 144.684 165.198 136.237 171.454 129.31C174.552 125.879 177.283 122.812 179.201 120.539C180.147 119.419 180.971 118.402 181.553 117.595C181.824 117.22 182.169 116.719 182.443 116.19C182.563 115.959 182.822 115.436 182.976 114.757C183.046 114.443 183.613 111.996 181.627 110.001L174.54 117.056ZM143.878 151.991L146.103 154.183L153.122 147.06L150.897 144.868L143.878 151.991ZM153.115 154.189C159.879 147.549 168.086 139.191 174.562 132.725C177.83 129.462 180.647 126.69 182.681 124.792C183.713 123.829 184.457 123.172 184.921 122.801C185.182 122.592 185.194 122.604 185.042 122.692C185.001 122.715 184.624 122.939 184.043 123.093C183.802 123.156 181.37 123.812 179.362 121.808L186.427 114.731C184.372 112.679 181.855 113.328 181.497 113.422C180.798 113.606 180.269 113.9 180.044 114.03C179.522 114.331 179.034 114.704 178.675 114.991C177.899 115.611 176.927 116.484 175.857 117.482C173.688 119.507 170.765 122.385 167.496 125.649C160.898 132.237 152.848 140.438 146.11 147.054L153.115 154.189ZM179.374 121.82C177.714 120.174 177.892 118.188 177.939 117.774C178.009 117.153 178.184 116.709 178.233 116.586C178.353 116.286 178.46 116.127 178.408 116.213C178.341 116.323 178.153 116.604 177.786 117.103C177.08 118.063 175.987 119.457 174.595 121.181C171.826 124.609 168.042 129.134 164.208 133.666C160.379 138.191 156.523 142.697 153.62 146.077C152.169 147.766 150.957 149.173 150.107 150.16C149.681 150.653 149.346 151.041 149.117 151.307C149.002 151.439 148.913 151.543 148.852 151.613C148.822 151.648 148.797 151.677 148.779 151.698C148.77 151.708 148.761 151.72 148.752 151.73C148.748 151.735 148.739 151.745 148.729 151.756C148.724 151.763 148.709 151.78 148.7 151.791C148.681 151.815 148.591 151.927 148.523 152.017L156.569 157.956C156.423 158.154 156.21 158.394 156.362 158.218C156.375 158.203 156.395 158.178 156.425 158.144C156.484 158.076 156.572 157.974 156.687 157.841C156.916 157.575 157.253 157.185 157.68 156.69C158.533 155.7 159.75 154.288 161.206 152.593C164.118 149.203 167.992 144.676 171.842 140.125C175.687 135.58 179.531 130.984 182.374 127.464C183.788 125.714 184.997 124.177 185.842 123.028C186.251 122.472 186.652 121.903 186.956 121.403C187.089 121.183 187.326 120.779 187.518 120.298C187.604 120.085 187.8 119.567 187.877 118.888C187.93 118.416 188.099 116.389 186.415 114.719L179.374 121.82ZM152.546 154.987C156.328 158.257 156.328 158.257 156.328 158.257C156.328 158.257 156.328 158.257 156.328 158.257C156.328 158.257 156.329 158.256 156.329 158.256C156.33 158.255 156.331 158.253 156.333 158.252C156.336 158.248 156.34 158.243 156.347 158.235C156.359 158.221 156.377 158.2 156.401 158.173C156.447 158.119 156.515 158.04 156.599 157.943C156.767 157.749 156.999 157.48 157.257 157.182C157.773 156.585 158.394 155.865 158.809 155.383C159.008 155.151 159.183 154.948 159.268 154.847C159.28 154.832 159.297 154.811 159.316 154.789C159.319 154.785 159.374 154.719 159.435 154.64C159.453 154.617 159.492 154.565 159.54 154.499C159.563 154.466 159.619 154.385 159.651 154.337C159.698 154.263 159.821 154.059 159.893 153.927C160.029 153.649 160.396 152.463 160.473 151.533C159.448 148.555 155.154 146.599 153.499 146.995C153.085 147.196 152.529 147.547 152.372 147.667C152.289 147.734 152.155 147.849 152.105 147.894C152.013 147.978 151.944 148.047 151.921 148.07C151.889 148.102 151.864 148.128 151.849 148.144C151.819 148.176 151.795 148.202 151.783 148.215C151.719 148.284 151.632 148.384 151.567 148.457C151.244 148.825 150.405 149.787 148.753 151.686L156.299 158.248C157.957 156.341 158.776 155.403 159.077 155.061C159.168 154.956 159.172 154.953 159.145 154.982C159.138 154.99 159.117 155.012 159.09 155.041C159.077 155.055 159.052 155.08 159.022 155.111C159 155.134 158.932 155.202 158.841 155.285C158.79 155.33 158.657 155.444 158.574 155.512C158.417 155.631 157.862 155.982 157.447 156.183C155.793 156.579 151.499 154.623 150.474 151.645C150.55 150.715 150.917 149.529 151.054 149.251C151.126 149.12 151.248 148.916 151.295 148.842C151.327 148.795 151.383 148.714 151.406 148.681C151.453 148.616 151.491 148.566 151.508 148.544C151.586 148.443 151.657 148.36 151.615 148.41C151.573 148.459 151.44 148.615 151.228 148.862C150.82 149.336 150.205 150.048 149.69 150.644C149.433 150.942 149.201 151.21 149.034 151.404C148.95 151.5 148.883 151.578 148.836 151.632C148.813 151.659 148.795 151.68 148.783 151.694C148.776 151.701 148.772 151.707 148.769 151.71C148.767 151.712 148.766 151.714 148.765 151.715C148.765 151.715 148.765 151.715 148.764 151.716C148.764 151.716 148.764 151.716 148.764 151.716C148.764 151.716 148.764 151.716 152.546 154.987ZM148.748 151.692C143.597 157.636 136.746 158.618 132.364 155.977L127.203 164.542C136.773 170.31 148.821 166.877 156.305 158.242L148.748 151.692ZM126.148 156.826C121.617 161.624 117.102 166.41 112.57 171.197L119.833 178.071C124.369 173.279 128.892 168.485 133.418 163.693L126.148 156.826ZM112.821 178.318C128.366 192.581 143.91 206.834 159.463 221.095L166.221 213.725C150.668 199.463 135.125 185.211 119.582 170.95L112.821 178.318ZM164.514 222.122L221.788 201.801L218.444 192.377L161.17 212.698L164.514 222.122ZM221.771 201.807C225.775 200.402 228.5 196.638 228.5 192.358H218.5C218.5 192.358 218.5 192.357 218.5 192.356C218.5 192.356 218.5 192.354 218.5 192.353C218.501 192.351 218.502 192.348 218.502 192.346C218.503 192.342 218.504 192.342 218.502 192.345C218.5 192.347 218.497 192.351 218.491 192.355C218.486 192.359 218.477 192.365 218.46 192.371L221.771 201.807ZM228.5 192.358V58.1651H218.5V192.358H228.5ZM228.499 58.0591C228.431 54.8475 226.851 51.8279 224.174 49.9476L218.426 58.131C218.454 58.1506 218.47 58.171 218.481 58.1913C218.493 58.2128 218.5 58.2392 218.501 58.2711L228.499 58.0591Z" fill="black" mask="url(#path-5-inside-1_4_6)"/>
</svg>
